<?xml version="1.0" standalone="no"?>
<!DOCTYPE svg PUBLIC "-//W3C//DTD SVG 20010904//EN"
 "http://www.w3.org/TR/2001/REC-SVG-20010904/DTD/svg10.dtd">
<svg version="1.0" xmlns="http://www.w3.org/2000/svg"
 width="500.000000pt" height="500.000000pt" viewBox="0 0 500.000000 500.000000"
 preserveAspectRatio="xMidYMid meet">
 <circle cx="250" cy="250" r="250" fill="#2b2e4a" />
<g transform="translate(0.000000,500.000000) scale(0.100000,-0.100000)"
fill="#e84545" stroke="none">
<path d="M2555 4310 c-576 -26 -1021 -119 -1324 -275 -237 -122 -383 -295
-442 -520 -29 -113 -30 -306 -1 -426 50 -206 118 -289 263 -320 113 -24 270
37 315 123 24 46 17 91 -31 190 -95 196 -76 369 52 490 78 72 165 110 353 152
118 26 368 62 376 53 5 -4 -51 -615 -86 -945 -11 -101 -20  -187 -20 -191 0 -5
-71 -11 -157 -14 -87 -3 -174 -11 -193 -17 -90 -32 -146 -113 -157 -224 -9
-103 26 -174 111 -219 36 -19 60 -22 188 -25 l148 -4 -5 -36 c-3 -21 -12 -95
-20 -167 -31 -264 -66 -399 -143 -550 -79 -153 -206 -261 -353 -300 -71 -19
-200 -19 -274 0 -149 39 -239 102 -381 266 -94 109 -151 150 -213 151 -56 1
-99 -28 -134 -91 -27 -47 -32 -67 -35 -143 -4 -88 -4 -89 33 -146 65 -98 161
-216 206 -253 55 -45 193 -120 284 -154 357 -135 830 -81 1110 127 272 202
416 521 501 1111 l28 187 402 0 c450 0 480 4 565 71 103 81 131 285 53 378
-50 60 -89 65 -474 63 -190 -1 -373 -5 -407 -8 -34 -3 -65 -4 -70 -1 -5 3 -4
58 4 129 6 68 28 299 47 513 20 215 39 421 42 459 l6 69 317 -6 c174 -3 458
-16 631 -28 173 -12 376 -23 450 -23 130 -1 137 0 182 27 81 47 127 163 112
280 -9 67 -75 141 -146 162 -71 21 -344 52 -603 70 -273 18 -870 26 -1110 15z"/>
</g>
</svg>
