<svg width="500" height="500" xmlns="http://www.w3.org/2000/svg" preserveAspectRatio="xMidYMid meet">

 <g>
  <title>Layer 1</title>
  <circle id="svg_1" fill="none" r="250" cy="250" cx="251"/>
  <g id="svg_2" fill="#e84545" transform="translate(0,500) scale(0.10000000149011612,-0.10000000149011612) ">
   <path id="svg_3" d="m2555,4310c-576,-26 -1021,-119 -1324,-275c-237,-122 -383,-295 -442,-520c-29,-113 -30,-306 -1,-426c50,-206 118,-289 263,-320c113,-24 270,37 315,123c24,46 17,91 -31,190c-95,196 -76,369 52,490c78,72 165,110 353,152c118,26 368,62 376,53c5,-4 -51,-615 -86,-945c-11,-101 -20,-187 -20,-191c0,-5 -71,-11 -157,-14c-87,-3 -174,-11 -193,-17c-90,-32 -146,-113 -157,-224c-9,-103 26,-174 111,-219c36,-19 60,-22 188,-25l148,-4l-5,-36c-3,-21 -12,-95 -20,-167c-31,-264 -66,-399 -143,-550c-79,-153 -206,-261 -353,-300c-71,-19 -200,-19 -274,0c-149,39 -239,102 -381,266c-94,109 -151,150 -213,151c-56,1 -99,-28 -134,-91c-27,-47 -32,-67 -35,-143c-4,-88 -4,-89 33,-146c65,-98 161,-216 206,-253c55,-45 193,-120 284,-154c357,-135 830,-81 1110,127c272,202 416,521 501,1111l28,187l402,0c450,0 480,4 565,71c103,81 131,285 53,378c-50,60 -89,65 -474,63c-190,-1 -373,-5 -407,-8c-34,-3 -65,-4 -70,-1c-5,3 -4,58 4,129c6,68 28,299 47,513c20,215 39,421 42,459l6,69l317,-6c174,-3 458,-16 631,-28c173,-12 376,-23 450,-23c130,-1 137,0 182,27c81,47 127,163 112,280c-9,67 -75,141 -146,162c-71,21 -344,52 -603,70c-273,18 -870,26 -1110,15z"/>
  </g>
 </g>
</svg>